# xmcd
#
# Track frame offsets: 
#        150
#        26155
#        59175
#        95380
#        127717
#        153990
#        173549
#        198844
#        233667
#
# Disc length: 3541 seconds
#
# Revision: 1
# Processed by: cddbd v1.5.2PL0 Copyright (c) Steve Scherf et al.
# Submitted via: ExactAudioCopy v0.99pb5
#
DISCID=690dd309
DTITLE=Joe Farnsworth - It's Prime Time
DYEAR=2003
DGENRE=Jazz
TTITLE0=Sweet Poppa
TTITLE1=Old Folks
TTITLE2=Prime Time
TTITLE3=Stable Mates
TTITLE4=Five Spot After Dark
TTITLE5=And So, I Love Again
TTITLE6=The Third Plane
TTITLE7=Hello, Young Lovers
TTITLE8=Jose's Lament
EXTD=YEAR: 2003
EXTT0=
EXTT1=
EXTT2=
EXTT3=
EXTT4=
EXTT5=
EXTT6=
EXTT7=
EXTT8=
PLAYORDER=
